<svg xmlns="http://www.w3.org/2000/svg" xmlns:xlink="http://www.w3.org/1999/xlink" width="500" zoomAndPan="magnify" viewBox="0 0 375 374.999991" height="500" preserveAspectRatio="xMidYMid meet" version="1.0"><defs><g/><clipPath id="ba48a8a001"><path d="M 138 97.128906 L 237 97.128906 L 237 205.128906 L 138 205.128906 Z M 138 97.128906 " clip-rule="nonzero"/></clipPath></defs><g clip-path="url(#ba48a8a001)"><path fill="#545454" d="M 186.441406 204.738281 C 183.296875 203.617188 179.90625 201.839844 177.03125 200.203125 C 170.066406 196.179688 163.617188 191.058594 158.160156 185.128906 C 139.472656 164.800781 135.652344 138.785156 140.910156 112.324219 L 141.3125 110.304688 L 187.542969 97.476562 L 233.773438 110.304688 L 234.175781 112.324219 C 239.457031 138.785156 235.613281 164.800781 216.945312 185.128906 C 211.488281 191.058594 205.0625 196.160156 198.078125 200.203125 C 195.203125 201.863281 191.8125 203.640625 188.664062 204.738281 L 187.542969 205.144531 Z M 186.441406 204.738281 " fill-opacity="1" fill-rule="evenodd"/></g><path fill="#545454" d="M 181.859375 145.570312 L 162.160156 111.449219 L 147.085938 115.625 C 146.523438 118.683594 146.121094 121.738281 145.828125 124.769531 Z M 181.859375 145.570312 " fill-opacity="1" fill-rule="evenodd"/><path fill="#737373" d="M 179.769531 149.164062 L 145.511719 129.398438 C 145.222656 136.136719 145.671875 142.761719 146.996094 149.164062 Z M 179.769531 149.164062 " fill-opacity="1" fill-rule="evenodd"/><path fill="#737373" d="M 179.769531 153.34375 L 148.007812 153.34375 C 149.398438 158.464844 151.398438 163.453125 154.070312 168.191406 Z M 179.769531 153.34375 " fill-opacity="1" fill-rule="evenodd"/><path fill="#a6a6a6" d="M 181.859375 156.9375 L 156.207031 171.761719 C 158.183594 174.816406 160.472656 177.761719 163.078125 180.589844 C 164.113281 181.714844 165.191406 182.816406 166.316406 183.894531 Z M 181.859375 156.9375 " fill-opacity="1" fill-rule="evenodd"/><path fill="#a6a6a6" d="M 185.453125 159.050781 L 169.460938 186.746094 C 172.851562 189.621094 176.511719 192.183594 180.355469 194.40625 C 181.902344 195.304688 183.679688 196.269531 185.453125 197.101562 Z M 185.453125 159.050781 " fill-opacity="1" fill-rule="evenodd"/><path fill="#545454" d="M 185.453125 105 L 166.316406 110.304688 L 185.453125 143.480469 Z M 185.453125 105 " fill-opacity="1" fill-rule="evenodd"/><path fill="#545454" d="M 208.792969 110.304688 L 189.632812 105 L 189.632812 143.480469 Z M 208.792969 110.304688 " fill-opacity="1" fill-rule="evenodd"/><path fill="#545454" d="M 229.257812 124.769531 C 228.988281 121.738281 228.5625 118.683594 228 115.625 L 212.925781 111.449219 L 193.226562 145.570312 Z M 229.257812 124.769531 " fill-opacity="1" fill-rule="evenodd"/><path fill="#737373" d="M 228.113281 149.164062 C 229.4375 142.761719 229.886719 136.136719 229.59375 129.398438 L 195.335938 149.164062 Z M 228.113281 149.164062 " fill-opacity="1" fill-rule="evenodd"/><path fill="#737373" d="M 221.058594 168.191406 C 223.730469 163.453125 225.707031 158.464844 227.125 153.34375 L 195.335938 153.34375 Z M 221.058594 168.191406 " fill-opacity="1" fill-rule="evenodd"/><path fill="#a6a6a6" d="M 208.792969 183.894531 C 209.917969 182.835938 210.996094 181.738281 212.027344 180.589844 C 214.632812 177.761719 216.902344 174.816406 218.902344 171.761719 L 193.25 156.9375 Z M 208.792969 183.894531 " fill-opacity="1" fill-rule="evenodd"/><path fill="#a6a6a6" d="M 189.632812 197.101562 C 191.40625 196.269531 193.179688 195.304688 194.730469 194.40625 C 198.570312 192.183594 202.234375 189.621094 205.625 186.746094 L 189.632812 159.050781 Z M 189.632812 197.101562 " fill-opacity="1" fill-rule="evenodd"/><path fill="#545454" d="M 188.417969 177.984375 C 192.394531 175.289062 196.347656 171.941406 198.976562 169.089844 C 209.019531 158.171875 212.433594 144.964844 211.9375 131.105469 L 188.417969 124.589844 L 164.898438 131.105469 C 164.40625 144.941406 167.820312 158.148438 177.859375 169.089844 C 180.511719 171.941406 184.441406 175.289062 188.417969 177.984375 " fill-opacity="1" fill-rule="evenodd"/><path fill="#ffffff" d="M 188.417969 138.179688 C 191.496094 138.179688 193.988281 140.671875 193.988281 143.75 C 193.988281 145.839844 192.84375 147.660156 191.136719 148.601562 L 192.820312 157.230469 L 184.015625 157.230469 L 185.699219 148.601562 C 183.992188 147.660156 182.847656 145.839844 182.847656 143.75 C 182.871094 140.671875 185.363281 138.179688 188.417969 138.179688 M 188.417969 173.898438 C 191.292969 171.808594 194.167969 169.359375 196.503906 166.820312 C 205.109375 157.453125 208.636719 146.042969 208.636719 133.664062 L 188.417969 128.050781 L 168.203125 133.664062 C 168.203125 146.042969 171.726562 157.453125 180.332031 166.820312 C 182.667969 169.359375 185.542969 171.808594 188.417969 173.898438 Z M 188.417969 173.898438 " fill-opacity="1" fill-rule="evenodd"/><g fill="#021f2e" fill-opacity="1"><g transform="translate(101.569522, 246.499579)"><g><path d="M 14.203125 0.3125 C 11.898438 0.3125 9.832031 -0.0625 8 -0.8125 C 6.175781 -1.5625 4.71875 -2.671875 3.625 -4.140625 C 2.53125 -5.609375 1.953125 -7.375 1.890625 -9.4375 L 10.078125 -9.4375 C 10.191406 -8.269531 10.59375 -7.378906 11.28125 -6.765625 C 11.976562 -6.148438 12.878906 -5.84375 13.984375 -5.84375 C 15.117188 -5.84375 16.015625 -6.101562 16.671875 -6.625 C 17.335938 -7.15625 17.671875 -7.882812 17.671875 -8.8125 C 17.671875 -9.59375 17.40625 -10.238281 16.875 -10.75 C 16.351562 -11.257812 15.710938 -11.675781 14.953125 -12 C 14.191406 -12.332031 13.101562 -12.707031 11.6875 -13.125 C 9.65625 -13.757812 7.992188 -14.390625 6.703125 -15.015625 C 5.410156 -15.648438 4.300781 -16.582031 3.375 -17.8125 C 2.445312 -19.039062 1.984375 -20.644531 1.984375 -22.625 C 1.984375 -25.5625 3.046875 -27.859375 5.171875 -29.515625 C 7.296875 -31.179688 10.066406 -32.015625 13.484375 -32.015625 C 16.960938 -32.015625 19.765625 -31.179688 21.890625 -29.515625 C 24.023438 -27.859375 25.164062 -25.546875 25.3125 -22.578125 L 17 -22.578125 C 16.9375 -23.597656 16.5625 -24.398438 15.875 -24.984375 C 15.1875 -25.566406 14.300781 -25.859375 13.21875 -25.859375 C 12.289062 -25.859375 11.539062 -25.609375 10.96875 -25.109375 C 10.40625 -24.617188 10.125 -23.910156 10.125 -22.984375 C 10.125 -21.960938 10.601562 -21.164062 11.5625 -20.59375 C 12.519531 -20.019531 14.015625 -19.40625 16.046875 -18.75 C 18.085938 -18.0625 19.742188 -17.398438 21.015625 -16.765625 C 22.296875 -16.140625 23.398438 -15.226562 24.328125 -14.03125 C 25.253906 -12.832031 25.71875 -11.289062 25.71875 -9.40625 C 25.71875 -7.601562 25.257812 -5.96875 24.34375 -4.5 C 23.4375 -3.03125 22.113281 -1.859375 20.375 -0.984375 C 18.632812 -0.117188 16.578125 0.3125 14.203125 0.3125 Z M 14.203125 0.3125 "/></g></g></g><g fill="#021f2e" fill-opacity="1"><g transform="translate(129.220994, 246.499579)"><g><path d="M 10.484375 -25.40625 L 10.484375 -19.015625 L 20.78125 -19.015625 L 20.78125 -13.078125 L 10.484375 -13.078125 L 10.484375 -6.15625 L 22.125 -6.15625 L 22.125 0 L 2.78125 0 L 2.78125 -31.5625 L 22.125 -31.5625 L 22.125 -25.40625 Z M 10.484375 -25.40625 "/></g></g></g><g fill="#021f2e" fill-opacity="1"><g transform="translate(153.545288, 246.499579)"><g><path d="M 31.03125 0 L 23.34375 0 L 10.484375 -19.46875 L 10.484375 0 L 2.78125 0 L 2.78125 -31.5625 L 10.484375 -31.5625 L 23.34375 -12 L 23.34375 -31.5625 L 31.03125 -31.5625 Z M 31.03125 0 "/></g></g></g><g fill="#021f2e" fill-opacity="1"><g transform="translate(187.356508, 246.499579)"><g><path d="M 25.5 -31.5625 L 25.5 -25.40625 L 17.140625 -25.40625 L 17.140625 0 L 9.4375 0 L 9.4375 -25.40625 L 1.078125 -25.40625 L 1.078125 -31.5625 Z M 25.5 -31.5625 "/></g></g></g><g fill="#021f2e" fill-opacity="1"><g transform="translate(213.928893, 246.499579)"><g><path d="M 18.890625 0 L 12.328125 -11.921875 L 10.484375 -11.921875 L 10.484375 0 L 2.78125 0 L 2.78125 -31.5625 L 15.6875 -31.5625 C 18.175781 -31.5625 20.296875 -31.125 22.046875 -30.25 C 23.804688 -29.382812 25.117188 -28.195312 25.984375 -26.6875 C 26.859375 -25.175781 27.296875 -23.488281 27.296875 -21.625 C 27.296875 -19.53125 26.703125 -17.65625 25.515625 -16 C 24.335938 -14.351562 22.59375 -13.1875 20.28125 -12.5 L 27.5625 0 Z M 10.484375 -17.359375 L 15.25 -17.359375 C 16.65625 -17.359375 17.707031 -17.703125 18.40625 -18.390625 C 19.113281 -19.078125 19.46875 -20.050781 19.46875 -21.3125 C 19.46875 -22.507812 19.113281 -23.453125 18.40625 -24.140625 C 17.707031 -24.835938 16.65625 -25.1875 15.25 -25.1875 L 10.484375 -25.1875 Z M 10.484375 -17.359375 "/></g></g></g><g fill="#021f2e" fill-opacity="1"><g transform="translate(243.243946, 246.499579)"><g><path d="M 29.859375 -31.5625 L 18.9375 -10.4375 L 18.9375 0 L 11.25 0 L 11.25 -10.4375 L 0.3125 -31.5625 L 9.03125 -31.5625 L 15.15625 -18.34375 L 21.21875 -31.5625 Z M 29.859375 -31.5625 "/></g></g></g><g fill="#021f2e" fill-opacity="1"><g transform="translate(150.743386, 272.374678)"><g><path d="M 0.859375 -6.96875 C 0.859375 -8.332031 1.164062 -9.554688 1.78125 -10.640625 C 2.394531 -11.722656 3.226562 -12.570312 4.28125 -13.1875 C 5.34375 -13.800781 6.519531 -14.109375 7.8125 -14.109375 C 9.332031 -14.109375 10.65625 -13.738281 11.78125 -13 C 12.914062 -12.269531 13.742188 -11.234375 14.265625 -9.890625 L 12.09375 -9.890625 C 11.707031 -10.734375 11.148438 -11.378906 10.421875 -11.828125 C 9.691406 -12.285156 8.820312 -12.515625 7.8125 -12.515625 C 6.84375 -12.515625 5.96875 -12.285156 5.1875 -11.828125 C 4.414062 -11.378906 3.8125 -10.738281 3.375 -9.90625 C 2.9375 -9.070312 2.71875 -8.09375 2.71875 -6.96875 C 2.71875 -5.863281 2.9375 -4.894531 3.375 -4.0625 C 3.8125 -3.226562 4.414062 -2.582031 5.1875 -2.125 C 5.96875 -1.675781 6.84375 -1.453125 7.8125 -1.453125 C 8.820312 -1.453125 9.691406 -1.675781 10.421875 -2.125 C 11.148438 -2.570312 11.707031 -3.21875 12.09375 -4.0625 L 14.265625 -4.0625 C 13.742188 -2.726562 12.914062 -1.695312 11.78125 -0.96875 C 10.65625 -0.238281 9.332031 0.125 7.8125 0.125 C 6.519531 0.125 5.34375 -0.175781 4.28125 -0.78125 C 3.226562 -1.394531 2.394531 -2.238281 1.78125 -3.3125 C 1.164062 -4.394531 0.859375 -5.613281 0.859375 -6.96875 Z M 0.859375 -6.96875 "/></g></g></g><g fill="#021f2e" fill-opacity="1"><g transform="translate(172.161397, 272.374678)"><g><path d="M 7.859375 0.140625 C 6.566406 0.140625 5.382812 -0.160156 4.3125 -0.765625 C 3.25 -1.367188 2.40625 -2.210938 1.78125 -3.296875 C 1.164062 -4.390625 0.859375 -5.613281 0.859375 -6.96875 C 0.859375 -8.332031 1.164062 -9.554688 1.78125 -10.640625 C 2.40625 -11.722656 3.25 -12.566406 4.3125 -13.171875 C 5.382812 -13.785156 6.566406 -14.09375 7.859375 -14.09375 C 9.160156 -14.09375 10.34375 -13.785156 11.40625 -13.171875 C 12.476562 -12.566406 13.316406 -11.722656 13.921875 -10.640625 C 14.535156 -9.566406 14.84375 -8.34375 14.84375 -6.96875 C 14.84375 -5.601562 14.535156 -4.378906 13.921875 -3.296875 C 13.316406 -2.210938 12.476562 -1.367188 11.40625 -0.765625 C 10.34375 -0.160156 9.160156 0.140625 7.859375 0.140625 Z M 7.859375 -1.4375 C 8.828125 -1.4375 9.703125 -1.660156 10.484375 -2.109375 C 11.265625 -2.566406 11.875 -3.210938 12.3125 -4.046875 C 12.757812 -4.890625 12.984375 -5.863281 12.984375 -6.96875 C 12.984375 -8.09375 12.757812 -9.070312 12.3125 -9.90625 C 11.875 -10.738281 11.265625 -11.378906 10.484375 -11.828125 C 9.710938 -12.285156 8.835938 -12.515625 7.859375 -12.515625 C 6.867188 -12.515625 5.988281 -12.285156 5.21875 -11.828125 C 4.445312 -11.378906 3.835938 -10.738281 3.390625 -9.90625 C 2.941406 -9.070312 2.71875 -8.09375 2.71875 -6.96875 C 2.71875 -5.863281 2.941406 -4.890625 3.390625 -4.046875 C 3.835938 -3.210938 4.445312 -2.566406 5.21875 -2.109375 C 6 -1.660156 6.878906 -1.4375 7.859375 -1.4375 Z M 7.859375 -1.4375 "/></g></g></g><g fill="#021f2e" fill-opacity="1"><g transform="translate(193.859106, 272.374678)"><g><path d="M 5.875 -13.921875 C 7.394531 -13.921875 8.707031 -13.640625 9.8125 -13.078125 C 10.925781 -12.515625 11.78125 -11.707031 12.375 -10.65625 C 12.96875 -9.601562 13.265625 -8.363281 13.265625 -6.9375 C 13.265625 -5.507812 12.96875 -4.269531 12.375 -3.21875 C 11.78125 -2.175781 10.925781 -1.378906 9.8125 -0.828125 C 8.707031 -0.273438 7.394531 0 5.875 0 L 1.53125 0 L 1.53125 -13.921875 Z M 5.875 -1.5 C 7.675781 -1.5 9.046875 -1.972656 9.984375 -2.921875 C 10.929688 -3.878906 11.40625 -5.21875 11.40625 -6.9375 C 11.40625 -8.664062 10.925781 -10.015625 9.96875 -10.984375 C 9.019531 -11.960938 7.65625 -12.453125 5.875 -12.453125 L 3.359375 -12.453125 L 3.359375 -1.5 Z M 5.875 -1.5 "/></g></g></g><g fill="#021f2e" fill-opacity="1"><g transform="translate(213.97853, 272.374678)"><g><path d="M 3.359375 -12.453125 L 3.359375 -7.796875 L 8.4375 -7.796875 L 8.4375 -6.296875 L 3.359375 -6.296875 L 3.359375 -1.5 L 9.03125 -1.5 L 9.03125 0 L 1.53125 0 L 1.53125 -13.953125 L 9.03125 -13.953125 L 9.03125 -12.453125 Z M 3.359375 -12.453125 "/></g></g></g></svg>